<?xml version="1.0" encoding="UTF-8"?>
<svg width="10px" height="6px" viewBox="0 0 10 6" version="1.1" xmlns="http://www.w3.org/2000/svg" xmlns:xlink="http://www.w3.org/1999/xlink">
    <title>b. icons / a. lineal / 06. system / SYS018   | chevron down Copy</title>
    <g id="âš›ï¸---Design-System" stroke="none" stroke-width="1" fill="none" fill-rule="evenodd">
        <g id="Artboard" transform="translate(-1437.000000, -10541.000000)" fill="#137E84">
            <g id="Icons" transform="translate(-112.000000, 10128.000000)">
                <g id="Group" transform="translate(1542.000000, 404.000000)">
                    <g id="Group" transform="translate(12.000000, 12.000000) rotate(-180.000000) translate(-12.000000, -12.000000) ">
                        <path d="M15.9942362,15 C15.7271615,14.9988746 15.4716425,14.8909443 15.2846909,14.7002735 L11.9967977,11.4134591 L8.70890459,14.7002735 C8.31979318,15.0920159 7.68668181,15.0942523 7.29481076,14.7052686 C6.9029397,14.3162849 6.90070255,13.6833812 7.28981393,13.2916388 L11.2872524,9.29551191 C11.4748988,9.10638256 11.730331,9 11.9967977,9 C12.2632645,9 12.5186967,9.10638256 12.7063431,9.29551191 L16.7037816,13.2916388 C16.9920568,13.5774522 17.0787032,14.0092101 16.923012,14.3840615 C16.7673209,14.7589129 16.4002411,15.0023433 15.9942362,15 Z" id="ðŸŒˆ-Color"></path>
                    </g>
                </g>
            </g>
        </g>
    </g>
</svg>