<?xml version="1.0" encoding="UTF-8"?>
<svg width="16px" height="16px" viewBox="0 0 16 16" version="1.1" xmlns="http://www.w3.org/2000/svg" xmlns:xlink="http://www.w3.org/1999/xlink">
    <title>01. Quark / icons / clear input icon </title>
    <g id="ðŸƒ--Daniel's-Sandbox-03" stroke="none" stroke-width="1" fill="none" fill-rule="evenodd">
        <g id="Artboard" transform="translate(-33643.000000, -5945.000000)" fill="#767676">
            <g id="Molecule-/-Search-Field-/-Empty-Copy" transform="translate(33378.000000, 5926.000000)">
                <g id="01.-Quark-/-icons-/-clear-input-icon-" transform="translate(261.000000, 15.000000)">
                    <path d="M12,4 C16.418278,4 20,7.581722 20,12 C20,16.418278 16.418278,20 12,20 C7.581722,20 4,16.418278 4,12 C4,7.581722 7.581722,4 12,4 Z M15.3038801,8.52795232 C14.9892854,8.29436499 14.5460627,8.32256643 14.2613426,8.60728656 L14.2613426,8.60728656 L12,10.869 L9.73865741,8.60728656 C9.45393728,8.32256643 9.01071458,8.29436499 8.69611989,8.52795232 L8.60588745,8.60588745 C8.29346802,8.91830688 8.29801936,9.42939021 8.60728656,9.73865741 L10.869,12 L8.60728656,14.2613426 C8.32613456,14.5424946 8.29681385,14.9904368 8.52853172,15.3042826 L8.60588745,15.3941125 L8.69611989,15.4720477 C9.01071458,15.705635 9.45393728,15.6774336 9.73865741,15.3927134 L9.73865741,15.3927134 L12,13.131 L14.2613426,15.3927134 C14.5460627,15.6774336 14.9892854,15.705635 15.3038801,15.4720477 L15.3941125,15.3941125 C15.706532,15.0816931 15.7019806,14.5706098 15.3927134,14.2613426 L13.131,12 L15.3927134,9.73865741 C15.6738654,9.45750541 15.7031862,9.00956322 15.4714683,8.69571741 L15.3941125,8.60588745 Z" id="clear-input"></path>
                </g>
            </g>
        </g>
    </g>
</svg>