<?xml version="1.0" encoding="UTF-8"?>
<svg width="20px" height="20px" viewBox="0 0 20 20" version="1.1" xmlns="http://www.w3.org/2000/svg" xmlns:xlink="http://www.w3.org/1999/xlink">
    <title>b. icons / a. lineal / 06. system / SYS004   | information in a circle</title>
    <g id="âš›ï¸---Design-System" stroke="none" stroke-width="1" fill="none" fill-rule="evenodd">
        <g id="Artboard" transform="translate(-981.000000, -12584.000000)" fill="#FFFFFF">
            <g id="Group" transform="translate(979.000000, 12582.000000)">
                <path d="M12,2 C17.5141602,2 22,6.4858398 22,12 C22,17.5141602 17.5141602,22 12,22 C6.4858398,22 2,17.5141602 2,12 C2,6.4858398 6.4858398,2 12,2 Z M12,3 C7.0375977,3 3,7.0375977 3,12 C3,16.9624023 7.0375977,21 12,21 C16.9624023,21 21,16.9624023 21,12 C21,7.0375977 16.9624023,3 12,3 Z M12,16 C12.2763672,16 12.5,16.2236328 12.5,16.5 L12.5,16.5 L12.5,17.5 C12.5,17.7763672 12.2763672,18 12,18 C11.7236328,18 11.5,17.7763672 11.5,17.5 L11.5,17.5 L11.5,16.5 C11.5,16.2236328 11.7236328,16 12,16 Z M9.7504883,6.7529297 C10.5444336,6.0859375 11.59375,5.8081055 12.6303711,5.9897461 C14.0395508,6.2368164 15.1967773,7.394043 15.4448242,8.8041992 C15.7060547,10.2924804 14.9995117,11.7783203 13.6870117,12.5014648 C12.9438477,12.9111328 12.5,13.6015624 12.5,14.3476562 L12.5,14.3476562 L12.5,14.5981445 C12.5,14.8745117 12.2763672,15.0981445 12,15.0981445 C11.7236328,15.0981445 11.5,14.8745117 11.5,14.5981445 L11.5,14.5981445 L11.5,14.3476562 C11.5,13.2314453 12.137207,12.2138672 13.2045898,11.6254883 C14.1572265,11.100586 14.6499023,10.0610352 14.4594726,8.9770508 C14.2836914,7.9741211 13.4604492,7.1503907 12.4575195,6.9750977 C11.7041016,6.8427735 10.9697266,7.0361328 10.3935547,7.519043 C9.8256836,7.9956055 9.5,8.6938476 9.5,9.4345703 C9.5,9.7109375 9.2763672,9.9345703 9,9.9345703 C8.7236328,9.9345703 8.5,9.7109375 8.5,9.4345703 C8.5,8.3979492 8.9555664,7.4204102 9.7504883,6.7529297 Z" id="ðŸŒˆ-Color"></path>
            </g>
        </g>
    </g>
</svg>