<?xml version="1.0" encoding="UTF-8"?>
<svg width="8px" height="14px" viewBox="0 0 8 14" version="1.1" xmlns="http://www.w3.org/2000/svg" xmlns:xlink="http://www.w3.org/1999/xlink">
    <title>left icon</title>
    <g id="3.-Molecules" stroke="none" stroke-width="1" fill="none" fill-rule="evenodd">
        <g id="Molecule-/-Nav-bar-/-Red" transform="translate(-24.000000, -28.000000)" fill="#212121">
            <g id="Group" transform="translate(16.000000, 23.000000)">
                <path d="M14.9956576,19.0041084 C14.7302393,19.0056284 14.4751309,18.9012781 14.2866853,18.7140916 L8.29537016,12.7140916 C8.10633154,12.526325 8,12.2707292 8,12.0040916 C8,11.7374541 8.10633154,11.4818582 8.29537016,11.2940916 L14.2866853,5.29409163 C14.6782398,4.90196946 15.3130753,4.90196946 15.7046298,5.29409163 C16.0961844,5.6862138 16.0961844,6.32196946 15.7046298,6.71409163 L10.4123015,12.0040916 L15.7046298,17.2940916 C15.8936685,17.4818582 16,17.7374541 16,18.0040916 C16,18.2707292 15.8936685,18.526325 15.7046298,18.7140916 C15.5161842,18.9012781 15.2610758,19.0056284 14.9956576,19.0041084 Z" id="🌈-Color"></path>
            </g>
        </g>
    </g>
</svg>